<?xml version="1.0" encoding="UTF-8" standalone="no"?><svg xmlns="http://www.w3.org/2000/svg" xmlns:xlink="http://www.w3.org/1999/xlink" contentScriptType="application/ecmascript" contentStyleType="text/css" height="1545px" preserveAspectRatio="none" style="width:1196px;height:1545px;" version="1.1" viewBox="0 0 1196 1545" width="1196px" zoomAndPan="magnify"><defs><filter height="300%" id="fv6anf1h3do5c" width="300%" x="-1" y="-1"><feGaussianBlur result="blurOut" stdDeviation="2.0"/><feColorMatrix in="blurOut" result="blurOut2" type="matrix" values="0 0 0 0 0 0 0 0 0 0 0 0 0 0 0 0 0 0 .4 0"/><feOffset dx="4.0" dy="4.0" in="blurOut2" result="blurOut3"/><feBlend in="SourceGraphic" in2="blurOut3" mode="normal"/></filter></defs><g><line style="stroke: #A80036; stroke-width: 1.0; stroke-dasharray: 5.0,5.0;" x1="42" x2="42" y1="38.2969" y2="1505.1406"/><line style="stroke: #A80036; stroke-width: 1.0; stroke-dasharray: 5.0,5.0;" x1="183" x2="183" y1="38.2969" y2="1505.1406"/><line style="stroke: #A80036; stroke-width: 1.0; stroke-dasharray: 5.0,5.0;" x1="347.5" x2="347.5" y1="38.2969" y2="1505.1406"/><line style="stroke: #A80036; stroke-width: 1.0; stroke-dasharray: 5.0,5.0;" x1="450" x2="450" y1="38.2969" y2="1505.1406"/><line style="stroke: #A80036; stroke-width: 1.0; stroke-dasharray: 5.0,5.0;" x1="519" x2="519" y1="38.2969" y2="1505.1406"/><line style="stroke: #A80036; stroke-width: 1.0; stroke-dasharray: 5.0,5.0;" x1="660" x2="660" y1="38.2969" y2="1505.1406"/><line style="stroke: #A80036; stroke-width: 1.0; stroke-dasharray: 5.0,5.0;" x1="917.5" x2="917.5" y1="38.2969" y2="1505.1406"/><line style="stroke: #A80036; stroke-width: 1.0; stroke-dasharray: 5.0,5.0;" x1="1026.5" x2="1026.5" y1="38.2969" y2="1505.1406"/><rect fill="#FEFECE" filter="url(#fv6anf1h3do5c)" height="30.2969" style="stroke: #A80036; stroke-width: 1.5;" width="64" x="8" y="3"/><text fill="#000000" font-family="sans-serif" font-size="14" lengthAdjust="spacingAndGlyphs" textLength="50" x="15" y="22.9951">Docker</text><rect fill="#FEFECE" filter="url(#fv6anf1h3do5c)" height="30.2969" style="stroke: #A80036; stroke-width: 1.5;" width="64" x="8" y="1504.1406"/><text fill="#000000" font-family="sans-serif" font-size="14" lengthAdjust="spacingAndGlyphs" textLength="50" x="15" y="1524.1357">Docker</text><rect fill="#FEFECE" filter="url(#fv6anf1h3do5c)" height="30.2969" style="stroke: #A80036; stroke-width: 1.5;" width="72" x="145" y="3"/><text fill="#000000" font-family="sans-serif" font-size="14" lengthAdjust="spacingAndGlyphs" textLength="58" x="152" y="22.9951">Runtime</text><rect fill="#FEFECE" filter="url(#fv6anf1h3do5c)" height="30.2969" style="stroke: #A80036; stroke-width: 1.5;" width="72" x="145" y="1504.1406"/><text fill="#000000" font-family="sans-serif" font-size="14" lengthAdjust="spacingAndGlyphs" textLength="58" x="152" y="1524.1357">Runtime</text><rect fill="#FEFECE" filter="url(#fv6anf1h3do5c)" height="30.2969" style="stroke: #A80036; stroke-width: 1.5;" width="111" x="290.5" y="3"/><text fill="#000000" font-family="sans-serif" font-size="14" lengthAdjust="spacingAndGlyphs" textLength="97" x="297.5" y="22.9951">VirtContainers</text><rect fill="#FEFECE" filter="url(#fv6anf1h3do5c)" height="30.2969" style="stroke: #A80036; stroke-width: 1.5;" width="111" x="290.5" y="1504.1406"/><text fill="#000000" font-family="sans-serif" font-size="14" lengthAdjust="spacingAndGlyphs" textLength="97" x="297.5" y="1524.1357">VirtContainers</text><rect fill="#FEFECE" filter="url(#fv6anf1h3do5c)" height="30.2969" style="stroke: #A80036; stroke-width: 1.5;" width="56" x="420" y="3"/><text fill="#000000" font-family="sans-serif" font-size="14" lengthAdjust="spacingAndGlyphs" textLength="42" x="427" y="22.9951">Qemu</text><rect fill="#FEFECE" filter="url(#fv6anf1h3do5c)" height="30.2969" style="stroke: #A80036; stroke-width: 1.5;" width="56" x="420" y="1504.1406"/><text fill="#000000" font-family="sans-serif" font-size="14" lengthAdjust="spacingAndGlyphs" textLength="42" x="427" y="1524.1357">Qemu</text><rect fill="#FEFECE" filter="url(#fv6anf1h3do5c)" height="30.2969" style="stroke: #A80036; stroke-width: 1.5;" width="55" x="490" y="3"/><text fill="#000000" font-family="sans-serif" font-size="14" lengthAdjust="spacingAndGlyphs" textLength="41" x="497" y="22.9951">Agent</text><rect fill="#FEFECE" filter="url(#fv6anf1h3do5c)" height="30.2969" style="stroke: #A80036; stroke-width: 1.5;" width="55" x="490" y="1504.1406"/><text fill="#000000" font-family="sans-serif" font-size="14" lengthAdjust="spacingAndGlyphs" textLength="41" x="497" y="1524.1357">Agent</text><rect fill="#FEFECE" filter="url(#fv6anf1h3do5c)" height="30.2969" style="stroke: #A80036; stroke-width: 1.5;" width="51" x="633" y="3"/><text fill="#000000" font-family="sans-serif" font-size="14" lengthAdjust="spacingAndGlyphs" textLength="37" x="640" y="22.9951">Proxy</text><rect fill="#FEFECE" filter="url(#fv6anf1h3do5c)" height="30.2969" style="stroke: #A80036; stroke-width: 1.5;" width="51" x="633" y="1504.1406"/><text fill="#000000" font-family="sans-serif" font-size="14" lengthAdjust="spacingAndGlyphs" textLength="37" x="640" y="1524.1357">Proxy</text><rect fill="#FEFECE" filter="url(#fv6anf1h3do5c)" height="30.2969" style="stroke: #A80036; stroke-width: 1.5;" width="48" x="891.5" y="3"/><text fill="#000000" font-family="sans-serif" font-size="14" lengthAdjust="spacingAndGlyphs" textLength="34" x="898.5" y="22.9951">Shim</text><rect fill="#FEFECE" filter="url(#fv6anf1h3do5c)" height="30.2969" style="stroke: #A80036; stroke-width: 1.5;" width="48" x="891.5" y="1504.1406"/><text fill="#000000" font-family="sans-serif" font-size="14" lengthAdjust="spacingAndGlyphs" textLength="34" x="898.5" y="1524.1357">Shim</text><rect fill="#FEFECE" filter="url(#fv6anf1h3do5c)" height="30.2969" style="stroke: #A80036; stroke-width: 1.5;" width="70" x="989.5" y="3"/><text fill="#000000" font-family="sans-serif" font-size="14" lengthAdjust="spacingAndGlyphs" textLength="56" x="996.5" y="22.9951">Process</text><rect fill="#FEFECE" filter="url(#fv6anf1h3do5c)" height="30.2969" style="stroke: #A80036; stroke-width: 1.5;" width="70" x="989.5" y="1504.1406"/><text fill="#000000" font-family="sans-serif" font-size="14" lengthAdjust="spacingAndGlyphs" textLength="56" x="996.5" y="1524.1357">Process</text><polygon fill="#A80036" points="171,65.2969,181,69.2969,171,73.2969,175,69.2969" style="stroke: #A80036; stroke-width: 1.0;"/><line style="stroke: #A80036; stroke-width: 1.0;" x1="42" x2="177" y1="69.2969" y2="69.2969"/><text fill="#000000" font-family="sans-serif" font-size="13" lengthAdjust="spacingAndGlyphs" textLength="43" x="49" y="64.3638">Create</text><polygon fill="#A80036" points="336,94.4297,346,98.4297,336,102.4297,340,98.4297" style="stroke: #A80036; stroke-width: 1.0;"/><line style="stroke: #A80036; stroke-width: 1.0;" x1="183" x2="342" y1="98.4297" y2="98.4297"/><text fill="#000000" font-family="sans-serif" font-size="13" lengthAdjust="spacingAndGlyphs" textLength="141" x="190" y="93.4966">CreatePod(podConfig)</text><line style="stroke: #A80036; stroke-width: 1.0;" x1="348" x2="390" y1="127.6953" y2="127.6953"/><line style="stroke: #A80036; stroke-width: 1.0;" x1="390" x2="390" y1="127.6953" y2="140.6953"/><line style="stroke: #A80036; stroke-width: 1.0;" x1="349" x2="390" y1="140.6953" y2="140.6953"/><polygon fill="#A80036" points="359,136.6953,349,140.6953,359,144.6953,355,140.6953" style="stroke: #A80036; stroke-width: 1.0;"/><text fill="#000000" font-family="sans-serif" font-size="13" lengthAdjust="spacingAndGlyphs" textLength="88" x="355" y="122.6294">pod.startVM()</text><polygon fill="#FBFB77" filter="url(#fv6anf1h3do5c)" points="455,153.6953,455,178.6953,636,178.6953,636,163.6953,626,153.6953,455,153.6953" style="stroke: #A80036; stroke-width: 1.0;"/><line style="stroke: #A80036; stroke-width: 1.0;" x1="626" x2="626" y1="153.6953" y2="163.6953"/><line style="stroke: #A80036; stroke-width: 1.0;" x1="636" x2="626" y1="163.6953" y2="163.6953"/><text fill="#000000" font-family="sans-serif" font-size="13" lengthAdjust="spacingAndGlyphs" textLength="160" x="461" y="170.7622">Qemu instance executed</text><polygon fill="#A80036" points="438,204.8281,448,208.8281,438,212.8281,442,208.8281" style="stroke: #A80036; stroke-width: 1.0;"/><line style="stroke: #A80036; stroke-width: 1.0;" x1="348" x2="444" y1="208.8281" y2="208.8281"/><text fill="#000000" font-family="sans-serif" font-size="13" lengthAdjust="spacingAndGlyphs" textLength="70" x="355" y="203.895">VM started</text><polygon fill="#A80036" points="507.5,233.9609,517.5,237.9609,507.5,241.9609,511.5,237.9609" style="stroke: #A80036; stroke-width: 1.0;"/><line style="stroke: #A80036; stroke-width: 1.0; stroke-dasharray: 2.0,2.0;" x1="450" x2="513.5" y1="237.9609" y2="237.9609"/><text fill="#000000" font-family="sans-serif" font-size="13" lengthAdjust="spacingAndGlyphs" textLength="32" x="457" y="233.0278">Start</text><polygon fill="#FBFB77" filter="url(#fv6anf1h3do5c)" points="665,251.0938,665,276.0938,734,276.0938,734,261.0938,724,251.0938,665,251.0938" style="stroke: #A80036; stroke-width: 1.0;"/><line style="stroke: #A80036; stroke-width: 1.0;" x1="724" x2="724" y1="251.0938" y2="261.0938"/><line style="stroke: #A80036; stroke-width: 1.0;" x1="734" x2="724" y1="261.0938" y2="261.0938"/><text fill="#000000" font-family="sans-serif" font-size="13" lengthAdjust="spacingAndGlyphs" textLength="48" x="671" y="268.1606">Started</text><polygon fill="#A80036" points="648.5,302.2266,658.5,306.2266,648.5,310.2266,652.5,306.2266" style="stroke: #A80036; stroke-width: 1.0;"/><line style="stroke: #A80036; stroke-width: 1.0;" x1="348" x2="654.5" y1="306.2266" y2="306.2266"/><text fill="#000000" font-family="sans-serif" font-size="13" lengthAdjust="spacingAndGlyphs" textLength="72" x="355" y="301.2935">RegisterVM</text><polygon fill="#FBFB77" filter="url(#fv6anf1h3do5c)" points="665,319.3594,665,344.3594,819,344.3594,819,329.3594,809,319.3594,665,319.3594" style="stroke: #A80036; stroke-width: 1.0;"/><line style="stroke: #A80036; stroke-width: 1.0;" x1="809" x2="809" y1="319.3594" y2="329.3594"/><line style="stroke: #A80036; stroke-width: 1.0;" x1="819" x2="809" y1="329.3594" y2="329.3594"/><text fill="#000000" font-family="sans-serif" font-size="13" lengthAdjust="spacingAndGlyphs" textLength="133" x="671" y="336.4263">WaitForReady(agent)</text><polygon fill="#A80036" points="648.5,370.4922,658.5,374.4922,648.5,378.4922,652.5,374.4922" style="stroke: #A80036; stroke-width: 1.0;"/><line style="stroke: #A80036; stroke-width: 1.0;" x1="519.5" x2="654.5" y1="374.4922" y2="374.4922"/><text fill="#000000" font-family="sans-serif" font-size="13" lengthAdjust="spacingAndGlyphs" textLength="42" x="526.5" y="369.5591">READY</text><polygon fill="#A80036" points="359,399.625,349,403.625,359,407.625,355,403.625" style="stroke: #A80036; stroke-width: 1.0;"/><line style="stroke: #A80036; stroke-width: 1.0; stroke-dasharray: 2.0,2.0;" x1="353" x2="659.5" y1="403.625" y2="403.625"/><text fill="#000000" font-family="sans-serif" font-size="13" lengthAdjust="spacingAndGlyphs" textLength="148" x="365" y="398.6919">NumIOStreams,Tokens</text><polygon fill="#A80036" points="905.5,428.7578,915.5,432.7578,905.5,436.7578,909.5,432.7578" style="stroke: #A80036; stroke-width: 1.0;"/><line style="stroke: #A80036; stroke-width: 1.0;" x1="348" x2="911.5" y1="432.7578" y2="432.7578"/><text fill="#000000" font-family="sans-serif" font-size="13" lengthAdjust="spacingAndGlyphs" textLength="125" x="355" y="427.8247">startShims(Tokens)</text><polygon fill="#A80036" points="359,457.8906,349,461.8906,359,465.8906,355,461.8906" style="stroke: #A80036; stroke-width: 1.0;"/><line style="stroke: #A80036; stroke-width: 1.0; stroke-dasharray: 2.0,2.0;" x1="353" x2="916.5" y1="461.8906" y2="461.8906"/><text fill="#000000" font-family="sans-serif" font-size="13" lengthAdjust="spacingAndGlyphs" textLength="48" x="365" y="456.9575">Started</text><polygon fill="#FBFB77" filter="url(#fv6anf1h3do5c)" points="922,475.0234,922,500.0234,1080,500.0234,1080,485.0234,1070,475.0234,922,475.0234" style="stroke: #A80036; stroke-width: 1.0;"/><line style="stroke: #A80036; stroke-width: 1.0;" x1="1070" x2="1070" y1="475.0234" y2="485.0234"/><line style="stroke: #A80036; stroke-width: 1.0;" x1="1080" x2="1070" y1="485.0234" y2="485.0234"/><text fill="#000000" font-family="sans-serif" font-size="13" lengthAdjust="spacingAndGlyphs" textLength="137" x="928" y="492.0903">Shim process started</text><polygon fill="#A80036" points="671.5,526.1563,661.5,530.1563,671.5,534.1563,667.5,530.1563" style="stroke: #A80036; stroke-width: 1.0;"/><line style="stroke: #A80036; stroke-width: 1.0;" x1="665.5" x2="916.5" y1="530.1563" y2="530.1563"/><text fill="#000000" font-family="sans-serif" font-size="13" lengthAdjust="spacingAndGlyphs" textLength="99" x="677.5" y="525.2231">Connect(token)</text><polygon fill="#A80036" points="905.5,555.2891,915.5,559.2891,905.5,563.2891,909.5,559.2891" style="stroke: #A80036; stroke-width: 1.0;"/><line style="stroke: #A80036; stroke-width: 1.0; stroke-dasharray: 2.0,2.0;" x1="660.5" x2="911.5" y1="559.2891" y2="559.2891"/><text fill="#000000" font-family="sans-serif" font-size="13" lengthAdjust="spacingAndGlyphs" textLength="106" x="667.5" y="554.356">Shim Connected</text><polygon fill="#A80036" points="194,584.4219,184,588.4219,194,592.4219,190,588.4219" style="stroke: #A80036; stroke-width: 1.0;"/><line style="stroke: #A80036; stroke-width: 1.0; stroke-dasharray: 2.0,2.0;" x1="188" x2="347" y1="588.4219" y2="588.4219"/><text fill="#000000" font-family="sans-serif" font-size="13" lengthAdjust="spacingAndGlyphs" textLength="24" x="200" y="583.4888">Pod</text><polygon fill="#A80036" points="53,613.5547,43,617.5547,53,621.5547,49,617.5547" style="stroke: #A80036; stroke-width: 1.0;"/><line style="stroke: #A80036; stroke-width: 1.0; stroke-dasharray: 2.0,2.0;" x1="47" x2="182" y1="617.5547" y2="617.5547"/><text fill="#000000" font-family="sans-serif" font-size="13" lengthAdjust="spacingAndGlyphs" textLength="117" x="59" y="612.6216">Container Created</text><polygon fill="#A80036" points="171,642.6875,181,646.6875,171,650.6875,175,646.6875" style="stroke: #A80036; stroke-width: 1.0;"/><line style="stroke: #A80036; stroke-width: 1.0;" x1="42" x2="177" y1="646.6875" y2="646.6875"/><text fill="#000000" font-family="sans-serif" font-size="13" lengthAdjust="spacingAndGlyphs" textLength="32" x="49" y="641.7544">Start</text><polygon fill="#FBFB77" filter="url(#fv6anf1h3do5c)" points="922,659.8203,922,684.8203,1132,684.8203,1132,669.8203,1122,659.8203,922,659.8203" style="stroke: #A80036; stroke-width: 1.0;"/><line style="stroke: #A80036; stroke-width: 1.0;" x1="1122" x2="1122" y1="659.8203" y2="669.8203"/><line style="stroke: #A80036; stroke-width: 1.0;" x1="1132" x2="1122" y1="669.8203" y2="669.8203"/><text fill="#000000" font-family="sans-serif" font-size="13" lengthAdjust="spacingAndGlyphs" textLength="189" x="928" y="676.8872">Created by Runtime at create</text><polygon fill="#A80036" points="336,710.9531,346,714.9531,336,718.9531,340,714.9531" style="stroke: #A80036; stroke-width: 1.0;"/><line style="stroke: #A80036; stroke-width: 1.0;" x1="183" x2="342" y1="714.9531" y2="714.9531"/><text fill="#000000" font-family="sans-serif" font-size="13" lengthAdjust="spacingAndGlyphs" textLength="66" x="190" y="710.02">StartPod()</text><polygon fill="#A80036" points="648.5,740.0859,658.5,744.0859,648.5,748.0859,652.5,744.0859" style="stroke: #A80036; stroke-width: 1.0;"/><line style="stroke: #A80036; stroke-width: 1.0;" x1="348" x2="654.5" y1="744.0859" y2="744.0859"/><text fill="#000000" font-family="sans-serif" font-size="13" lengthAdjust="spacingAndGlyphs" textLength="100" x="355" y="739.1528">hyper(startPod)</text><polygon fill="#A80036" points="359,769.2188,349,773.2188,359,777.2188,355,773.2188" style="stroke: #A80036; stroke-width: 1.0;"/><line style="stroke: #A80036; stroke-width: 1.0; stroke-dasharray: 2.0,2.0;" x1="353" x2="659.5" y1="773.2188" y2="773.2188"/><text fill="#000000" font-family="sans-serif" font-size="13" lengthAdjust="spacingAndGlyphs" textLength="76" x="365" y="768.2856">Pod Started</text><polygon fill="#A80036" points="648.5,798.3516,658.5,802.3516,648.5,806.3516,652.5,802.3516" style="stroke: #A80036; stroke-width: 1.0;"/><line style="stroke: #A80036; stroke-width: 1.0;" x1="348" x2="654.5" y1="802.3516" y2="802.3516"/><text fill="#000000" font-family="sans-serif" font-size="13" lengthAdjust="spacingAndGlyphs" textLength="184" x="355" y="797.4185">hyper(NewContainer(pause))</text><polygon fill="#FBFB77" filter="url(#fv6anf1h3do5c)" points="353,815.4844,353,840.4844,551,840.4844,551,825.4844,541,815.4844,353,815.4844" style="stroke: #A80036; stroke-width: 1.0;"/><line style="stroke: #A80036; stroke-width: 1.0;" x1="541" x2="541" y1="815.4844" y2="825.4844"/><line style="stroke: #A80036; stroke-width: 1.0;" x1="551" x2="541" y1="825.4844" y2="825.4844"/><text fill="#000000" font-family="sans-serif" font-size="13" lengthAdjust="spacingAndGlyphs" textLength="177" x="359" y="832.5513">Pause is a special container</text><polygon fill="#A80036" points="359,866.6172,349,870.6172,359,874.6172,355,870.6172" style="stroke: #A80036; stroke-width: 1.0;"/><line style="stroke: #A80036; stroke-width: 1.0; stroke-dasharray: 2.0,2.0;" x1="353" x2="659.5" y1="870.6172" y2="870.6172"/><text fill="#000000" font-family="sans-serif" font-size="13" lengthAdjust="spacingAndGlyphs" textLength="117" x="365" y="865.6841">Container Created</text><polygon fill="#A80036" points="648.5,895.75,658.5,899.75,648.5,903.75,652.5,899.75" style="stroke: #A80036; stroke-width: 1.0;"/><line style="stroke: #A80036; stroke-width: 1.0;" x1="348" x2="654.5" y1="899.75" y2="899.75"/><text fill="#000000" font-family="sans-serif" font-size="13" lengthAdjust="spacingAndGlyphs" textLength="258" x="355" y="894.8169">hyper(NewContainer(process,iosession))</text><line style="stroke: #A80036; stroke-width: 1.0;" x1="660.5" x2="702.5" y1="929.0156" y2="929.0156"/><line style="stroke: #A80036; stroke-width: 1.0;" x1="702.5" x2="702.5" y1="929.0156" y2="942.0156"/><line style="stroke: #A80036; stroke-width: 1.0;" x1="661.5" x2="702.5" y1="942.0156" y2="942.0156"/><polygon fill="#A80036" points="671.5,938.0156,661.5,942.0156,671.5,946.0156,667.5,942.0156" style="stroke: #A80036; stroke-width: 1.0;"/><text fill="#000000" font-family="sans-serif" font-size="13" lengthAdjust="spacingAndGlyphs" textLength="167" x="667.5" y="923.9497">relocateHyperCommand()</text><line style="stroke: #A80036; stroke-width: 1.0;" x1="660.5" x2="702.5" y1="971.1484" y2="971.1484"/><line style="stroke: #A80036; stroke-width: 1.0;" x1="702.5" x2="702.5" y1="971.1484" y2="984.1484"/><line style="stroke: #A80036; stroke-width: 1.0;" x1="661.5" x2="702.5" y1="984.1484" y2="984.1484"/><polygon fill="#A80036" points="671.5,980.1484,661.5,984.1484,671.5,988.1484,667.5,984.1484" style="stroke: #A80036; stroke-width: 1.0;"/><text fill="#000000" font-family="sans-serif" font-size="13" lengthAdjust="spacingAndGlyphs" textLength="90" x="667.5" y="966.0825">WaitForShim()</text><polygon fill="#FBFB77" filter="url(#fv6anf1h3do5c)" points="665,997.1484,665,1022.1484,981,1022.1484,981,1007.1484,971,997.1484,665,997.1484" style="stroke: #A80036; stroke-width: 1.0;"/><line style="stroke: #A80036; stroke-width: 1.0;" x1="971" x2="971" y1="997.1484" y2="1007.1484"/><line style="stroke: #A80036; stroke-width: 1.0;" x1="981" x2="971" y1="1007.1484" y2="1007.1484"/><text fill="#000000" font-family="sans-serif" font-size="13" lengthAdjust="spacingAndGlyphs" textLength="295" x="671" y="1014.2153">Proxy assign iosequense to process and shim.</text><polygon fill="#FBFB77" filter="url(#fv6anf1h3do5c)" points="665,1036.2813,665,1061.2813,909,1061.2813,909,1046.2813,899,1036.2813,665,1036.2813" style="stroke: #A80036; stroke-width: 1.0;"/><line style="stroke: #A80036; stroke-width: 1.0;" x1="899" x2="899" y1="1036.2813" y2="1046.2813"/><line style="stroke: #A80036; stroke-width: 1.0;" x1="909" x2="899" y1="1046.2813" y2="1046.2813"/><text fill="#000000" font-family="sans-serif" font-size="13" lengthAdjust="spacingAndGlyphs" textLength="223" x="671" y="1053.3481">1)iosession.processStarted (see 2)</text><polygon fill="#A80036" points="530.5,1087.4141,520.5,1091.4141,530.5,1095.4141,526.5,1091.4141" style="stroke: #A80036; stroke-width: 1.0;"/><line style="stroke: #A80036; stroke-width: 1.0;" x1="524.5" x2="659.5" y1="1091.4141" y2="1091.4141"/><text fill="#000000" font-family="sans-serif" font-size="13" lengthAdjust="spacingAndGlyphs" textLength="89" x="536.5" y="1086.481">NewContainer</text><polygon fill="#A80036" points="1014.5,1116.5469,1024.5,1120.5469,1014.5,1124.5469,1018.5,1120.5469" style="stroke: #A80036; stroke-width: 1.0;"/><line style="stroke: #A80036; stroke-width: 1.0;" x1="519.5" x2="1020.5" y1="1120.5469" y2="1120.5469"/><text fill="#000000" font-family="sans-serif" font-size="13" lengthAdjust="spacingAndGlyphs" textLength="30" x="526.5" y="1115.6138">Exec</text><polygon fill="#A80036" points="648.5,1145.6797,658.5,1149.6797,648.5,1153.6797,652.5,1149.6797" style="stroke: #A80036; stroke-width: 1.0;"/><line style="stroke: #A80036; stroke-width: 1.0; stroke-dasharray: 2.0,2.0;" x1="519.5" x2="654.5" y1="1149.6797" y2="1149.6797"/><text fill="#000000" font-family="sans-serif" font-size="13" lengthAdjust="spacingAndGlyphs" textLength="117" x="526.5" y="1144.7466">Container Created</text><polygon fill="#A80036" points="359,1174.8125,349,1178.8125,359,1182.8125,355,1178.8125" style="stroke: #A80036; stroke-width: 1.0;"/><line style="stroke: #A80036; stroke-width: 1.0; stroke-dasharray: 2.0,2.0;" x1="353" x2="659.5" y1="1178.8125" y2="1178.8125"/><text fill="#000000" font-family="sans-serif" font-size="13" lengthAdjust="spacingAndGlyphs" textLength="117" x="365" y="1173.8794">Container Created</text><polygon fill="#A80036" points="194,1203.9453,184,1207.9453,194,1211.9453,190,1207.9453" style="stroke: #A80036; stroke-width: 1.0;"/><line style="stroke: #A80036; stroke-width: 1.0;" x1="188" x2="347" y1="1207.9453" y2="1207.9453"/><text fill="#000000" font-family="sans-serif" font-size="13" lengthAdjust="spacingAndGlyphs" textLength="72" x="200" y="1203.0122">PodStarted</text><polygon fill="#A80036" points="53,1233.0781,43,1237.0781,53,1241.0781,49,1237.0781" style="stroke: #A80036; stroke-width: 1.0;"/><line style="stroke: #A80036; stroke-width: 1.0; stroke-dasharray: 2.0,2.0;" x1="47" x2="182" y1="1237.0781" y2="1237.0781"/><text fill="#000000" font-family="sans-serif" font-size="13" lengthAdjust="spacingAndGlyphs" textLength="110" x="59" y="1232.145">container started</text><polygon fill="#FBFB77" filter="url(#fv6anf1h3do5c)" points="922,1250.2109,922,1275.2109,1184,1275.2109,1184,1260.2109,1174,1250.2109,922,1250.2109" style="stroke: #A80036; stroke-width: 1.0;"/><line style="stroke: #A80036; stroke-width: 1.0;" x1="1174" x2="1174" y1="1250.2109" y2="1260.2109"/><line style="stroke: #A80036; stroke-width: 1.0;" x1="1184" x2="1174" y1="1260.2109" y2="1260.2109"/><text fill="#000000" font-family="sans-serif" font-size="13" lengthAdjust="spacingAndGlyphs" textLength="241" x="928" y="1267.2778">Shim gets stdin stream from terminal</text><line style="stroke: #A80036; stroke-width: 1.0;" x1="917.5" x2="959.5" y1="1305.4766" y2="1305.4766"/><line style="stroke: #A80036; stroke-width: 1.0;" x1="959.5" x2="959.5" y1="1305.4766" y2="1318.4766"/><line style="stroke: #A80036; stroke-width: 1.0;" x1="918.5" x2="959.5" y1="1318.4766" y2="1318.4766"/><polygon fill="#A80036" points="928.5,1314.4766,918.5,1318.4766,928.5,1322.4766,924.5,1318.4766" style="stroke: #A80036; stroke-width: 1.0;"/><text fill="#000000" font-family="sans-serif" font-size="13" lengthAdjust="spacingAndGlyphs" textLength="95" x="924.5" y="1300.4106">handle_stdin();</text><polygon fill="#A80036" points="671.5,1343.4766,661.5,1347.4766,671.5,1351.4766,667.5,1347.4766" style="stroke: #A80036; stroke-width: 1.0;"/><line style="stroke: #A80036; stroke-width: 1.0;" x1="665.5" x2="916.5" y1="1347.4766" y2="1347.4766"/><text fill="#000000" font-family="sans-serif" font-size="13" lengthAdjust="spacingAndGlyphs" textLength="233" x="677.5" y="1342.5435">send_proxy_message(stream_stdin)</text><polygon fill="#FBFB77" filter="url(#fv6anf1h3do5c)" points="665,1360.6094,665,1385.6094,1120,1385.6094,1120,1370.6094,1110,1360.6094,665,1360.6094" style="stroke: #A80036; stroke-width: 1.0;"/><line style="stroke: #A80036; stroke-width: 1.0;" x1="1110" x2="1110" y1="1360.6094" y2="1370.6094"/><line style="stroke: #A80036; stroke-width: 1.0;" x1="1120" x2="1110" y1="1370.6094" y2="1370.6094"/><text fill="#000000" font-family="sans-serif" font-size="13" lengthAdjust="spacingAndGlyphs" textLength="434" x="671" y="1377.6763">2) Wait for the process associated to shim session is started (see 1)</text><line style="stroke: #A80036; stroke-width: 1.0;" x1="660.5" x2="702.5" y1="1415.875" y2="1415.875"/><line style="stroke: #A80036; stroke-width: 1.0;" x1="702.5" x2="702.5" y1="1415.875" y2="1428.875"/><line style="stroke: #A80036; stroke-width: 1.0;" x1="661.5" x2="702.5" y1="1428.875" y2="1428.875"/><polygon fill="#A80036" points="671.5,1424.875,661.5,1428.875,671.5,1432.875,667.5,1428.875" style="stroke: #A80036; stroke-width: 1.0;"/><text fill="#000000" font-family="sans-serif" font-size="13" lengthAdjust="spacingAndGlyphs" textLength="107" x="667.5" y="1410.8091">WaitForProcess()</text><polygon fill="#A80036" points="530.5,1453.875,520.5,1457.875,530.5,1461.875,526.5,1457.875" style="stroke: #A80036; stroke-width: 1.0;"/><line style="stroke: #A80036; stroke-width: 1.0;" x1="524.5" x2="659.5" y1="1457.875" y2="1457.875"/><text fill="#000000" font-family="sans-serif" font-size="13" lengthAdjust="spacingAndGlyphs" textLength="61" x="536.5" y="1452.9419">IOStream</text><polygon fill="#A80036" points="1014.5,1483.0078,1024.5,1487.0078,1014.5,1491.0078,1018.5,1487.0078" style="stroke: #A80036; stroke-width: 1.0;"/><line style="stroke: #A80036; stroke-width: 1.0;" x1="519.5" x2="1020.5" y1="1487.0078" y2="1487.0078"/><text fill="#000000" font-family="sans-serif" font-size="13" lengthAdjust="spacingAndGlyphs" textLength="61" x="526.5" y="1482.0747">IOStream</text></g></svg>